{"title":"The First Purge 2018 Movies 720p BluRay x264 5.1 ESubs +Sample ☻","magnet":"magnet:?xt=urn:btih:c300b7358ce28a363f6dd1225f246224bd4c2c88&dn=The+First+Purge+2018+Movies+720p+BluRay+x264+5.1+ESubs+%2BSample+%E2%98%BB&tr=udp%3A%2F%2Ftracker.leechers-paradise.org%3A6969&tr=udp%3A%2F%2Fzer0day.ch%3A1337&tr=udp%3A%2F%2Fopen.demonii.com%3A1337&tr=udp%3A%2F%2Ftracker.coppersurfer.tk%3A6969&tr=udp%3A%2F%2Fexodus.desync.com%3A6969","uploader":"basicssom","categoryP":"video","categoryS":"hd___movies","size":"1192753103","seeders":"0","leechers":"0","description":"The First Purge 2018 Movies 720p BluRay x264 5.1 ESubs with Sample &#x263B;rDX&#x263B;\r\n\r\nSCREEN SHOTS &amp; POSTER:\r\n   <a href=\"\nhttp://iphonehosting.eu/2018/9/apple/index.html\" rel=\"nofollow\" target=\"_NEW\">\nhttp://iphonehosting.eu/2018/9/apple/index.html</a> <a href=\"\nhttp://iphonehosting.eu/2018/9/apple/1.html\" rel=\"nofollow\" target=\"_NEW\">\nhttp://iphonehosting.eu/2018/9/apple/1.html</a> <a href=\"\nhttp://iphonehosting.eu/2018/9/apple/2.html\" rel=\"nofollow\" target=\"_NEW\">\nhttp://iphonehosting.eu/2018/9/apple/2.html</a>   <a href=\"\nhttp://iphonehosting.eu/2018/9/apple/3.html\" rel=\"nofollow\" target=\"_NEW\">\nhttp://iphonehosting.eu/2018/9/apple/3.html</a>   <a href=\"\nhttp://iphonehosting.eu/2018/9/apple/4.html\" rel=\"nofollow\" target=\"_NEW\">\nhttp://iphonehosting.eu/2018/9/apple/4.html</a>   <a href=\"\nhttp://iphonehosting.eu/2018/9/apple/5.html\" rel=\"nofollow\" target=\"_NEW\">\nhttp://iphonehosting.eu/2018/9/apple/5.html</a>   <a href=\"\nhttp://iphonehosting.eu/2018/9/apple/6.html\" rel=\"nofollow\" target=\"_NEW\">\nhttp://iphonehosting.eu/2018/9/apple/6.html</a>   <a href=\"\nhttp://iphonehosting.eu/2018/9/apple/7.html\" rel=\"nofollow\" target=\"_NEW\">\nhttp://iphonehosting.eu/2018/9/apple/7.html</a>   <a href=\"\nhttp://iphonehosting.eu/2018/9/apple/8.html\" rel=\"nofollow\" target=\"_NEW\">\nhttp://iphonehosting.eu/2018/9/apple/8.html</a>   <a href=\"\nhttp://iphonehosting.eu/2018/9/apple/9.html\" rel=\"nofollow\" target=\"_NEW\">\nhttp://iphonehosting.eu/2018/9/apple/9.html</a>   <a href=\"\nhttp://iphonehosting.eu/2018/9/apple/10.html\" rel=\"nofollow\" target=\"_NEW\">\nhttp://iphonehosting.eu/2018/9/apple/10.html</a>\r\n\r\nFile size                                : 1.10 GiB\r\nDuration                                 : 1 h 37 min\r\nOverall bit rate                         : 1 618 kb/s\r\nMovie name                               : The First Purge 2018 Movies 720p BluRay x264 5.1 ESubs &#x263B;rDX&#x263B;\r\n\r\nVideo\r\nID                                       : 2\r\nFormat                                   : AVC\r\nFormat/Info                              : Advanced Video Codec\r\nFormat profile                           : Main@L3.1\r\nFormat settings, CABAC                   : Yes\r\nFormat settings, ReFrames                : 2 frames\r\nFormat settings, GOP                     : M=1, N=25\r\nCodec ID                                 : V_MPEG4/ISO/AVC\r\nDuration                                 : 1 h 37 min\r\nBit rate mode                            : Constant\r\nBit rate                                 : 1 100 kb/s\r\nWidth                                    : 1 280 pixels\r\nHeight                                   : 538 pixels\r\nDisplay aspect ratio                     : 2.40:1\r\nFrame rate mode                          : Constant\r\nFrame rate                               : 29.970 (30000/1001) FPS\r\nColor space                              : YUV\r\nChroma subsampling                       : 4:2:0\r\nBit depth                                : 8 bits\r\nScan type                                : Progressive\r\nBits/(Pixel*Frame)                       : 0.053\r\nStream size                              : 748 MiB (66%)\r\nTitle                                    : &#x263B;rDX&#x263B;\r\nDefault                                  : Yes\r\nForced                                   : No\r\n\r\nAudio\r\nID                                       : 1\r\nFormat                                   : AC-3\r\nFormat/Info                              : Audio Coding 3\r\nMode extension                           : CM (complete main)\r\nFormat settings, Endianness              : Big\r\nCodec ID                                 : A_AC3\r\nDuration                                 : 1 h 37 min\r\nBit rate mode                            : Constant\r\nBit rate                                 : 512 kb/s\r\nChannel(s)                               : 6 channels\r\nChannel positions                        : Front: L C R, Side: L R, LFE\r\nSampling rate                            : 44.1 kHz\r\nFrame rate                               : 28.711 FPS (1536 spf)\r\nBit depth                                : 16 bits\r\nCompression mode                         : Lossy\r\nStream size                              : 357 MiB (32%)\r\nTitle                                    : &#x263B;rDX&#x263B;\r\nDefault                                  : Yes\r\nForced                                   : No\r\n <a href=\"\nhttps://www.imdb.com/title/tt6133466/\" rel=\"nofollow\" target=\"_NEW\">\nhttps://www.imdb.com/title/tt6133466/</a>","last_updated":"2018-09-22T12:11:24.717Z","parsed":{"xt":"urn:btih:c300b7358ce28a363f6dd1225f246224bd4c2c88","dn":"The First Purge 2018 Movies 720p BluRay x264 5.1 ESubs  Sample ☻","tr":["udp://exodus.desync.com:6969","udp://open.demonii.com:1337","udp://tracker.coppersurfer.tk:6969","udp://tracker.leechers-paradise.org:6969","udp://zer0day.ch:1337"],"infoHash":"c300b7358ce28a363f6dd1225f246224bd4c2c88","infoHashBuffer":{"type":"Buffer","data":[195,0,183,53,140,226,138,54,63,109,209,34,95,36,98,36,189,76,44,136]},"name":"The First Purge 2018 Movies 720p BluRay x264 5.1 ESubs  Sample ☻","announce":["udp://exodus.desync.com:6969","udp://open.demonii.com:1337","udp://tracker.coppersurfer.tk:6969","udp://tracker.leechers-paradise.org:6969","udp://zer0day.ch:1337"],"urlList":[]}}